<svg width="801" height="450" viewBox="0 0 801 450" fill="none" xmlns="http://www.w3.org/2000/svg"><path fill="#ABB3FF" d="M.764 0h800v450h-800z"/><rect x="368.331" y="249.975" width="95.895" height="108.276" rx="10.608" fill="#8591FD"/><rect x="607.818" y="222.031" width="83.816" height="83.816" rx="10.368" fill="#8591FD"/><rect x="514.293" y="185.847" width="98.007" height="135.432" rx="9.3" transform="rotate(-90 514.293 185.847)" fill="#FDCB6C"/><path d="M618.788 136.858c0-10.586-8.585-18.997-19.294-18.997-7.936 0-14.958 4.582-17.908 11.833h-28.587c-.856 0-1.623.261-2.272.899l-4.956 5.047a1.883 1.883 0 00.03 2.668l9.293 9.136c.855.841 2.094.812 2.92 0l5.281-5.249 7.493 7.366c.797.754 2.036.783 2.892-.058l7.316-7.163c3.747 8.672 10.503 13.486 18.498 13.486 10.679 0 19.294-8.44 19.294-18.968zm-17.937 0c0-2.813 2.33-5.105 5.192-5.105 2.891 0 5.192 2.263 5.192 5.105 0 2.813-2.33 5.105-5.192 5.105s-5.192-2.292-5.192-5.105z" fill="#fff"/><rect x="134.852" y="226.091" width="98.007" height="135.432" rx="9.3" transform="rotate(-90 134.852 226.091)" fill="#8591FD"/><path d="M314.839 313.195v1.851h33.427V165.872h-43.025l-.476 1.133-39.555 94.076-40.272-94.087-.48-1.122h-41.902v149.174h33.242v-88.791l37.695 87.671.481 1.12h22.504l.481-1.122 37.88-88.386v87.657zm161.343-87.871h-57.045v-27.14h65.769v-32.312h-99.568v149.174h33.799v-57.409h58.895v-32.313h-1.85zm136.428 88.521l.45 1.201h35l-.963-2.513L591.36 167.06l-.455-1.188h-38.776l-.454 1.19-55.551 145.473-.959 2.511h34.818l.446-1.21 11.073-30.003h59.853l11.255 30.012zm-22.849-61.581h-37.044l18.522-50.042 18.522 50.042z" fill="#fff" stroke="#fff" stroke-width="3.701"/><rect x="326.423" y="208.39" width="83.816" height="83.816" rx="10.368" fill="#366CF4"/><path d="M348.716 264.363l-.001-.002c-.522-.731-.372-1.667.322-2.38l.002-.002h0c.859-.832 1.433-2.059 1.433-3.486-.009-.935-.273-1.917-.573-3.032l-.139-.523c-.351-1.332-.701-2.845-.701-4.652 0-10.304 8.541-18.792 18.931-18.792 6.037 0 11.064 2.413 14.581 6.622 3.515 4.208 5.516 10.204 5.516 17.366 0 5.519-1.034 9.365-1.845 11.514v.001c-.377.961-1.53 1.381-2.425.937-.831-.402-1.155-1.411-.758-2.316.735-1.749 1.564-5.105 1.564-10.113 0-6.186-1.657-11.334-4.562-14.934-2.904-3.598-7.059-5.655-12.071-5.655-8.504 0-15.467 6.943-15.467 15.37 0 1.773.323 3.052.648 4.277l.037.138c.312 1.177.617 2.321.617 3.814m-5.109 5.848l1.839-5.87c-.009-.947-.276-1.941-.576-3.055-.391-1.456-.837-3.118-.837-5.152 0-10.257 8.504-18.709 18.848-18.709 12.026 0 20.014 9.611 20.014 23.905 0 5.508-1.032 9.344-1.84 11.485-.359.914-1.458 1.316-2.311.892-.785-.379-1.099-1.338-.718-2.208.741-1.762 1.571-5.129 1.571-10.146 0-12.399-6.642-20.672-16.716-20.672-8.549 0-15.55 6.98-15.55 15.453 0 1.85.35 3.167.687 4.435.313 1.177.615 2.312.615 3.794.022 2.453-.876 4.705-2.513 6.066m-2.513-.218a1.756 1.756 0 002.566.282m-2.566-.282l.067-.05a1.673 1.673 0 002.446.268m2.596-6.066s0 0 0 0h-.083l.083-.001v.001zm0 0c.022 2.472-.882 4.75-2.543 6.13m0 0v-.001l-.053-.063m.053.064s0 0 0 0l-.053-.064m-5.684-19.836h.001c.525.186 1.031.152 1.453-.056.422-.209.756-.589.942-1.086 3.331-8.865 11.131-14.151 20.071-14.151 3.735 0 6.505.711 9.074 1.954l.001.001c.567.259 1.112.395 1.577.333.472-.062.855-.326 1.091-.842.2-.42.219-.839.064-1.225-.155-.385-.479-.726-.95-1-3.404-2.016-6.696-2.665-10.857-2.665-10.714 0-19.429 5.818-23.39 16.019-.484 1.214-.029 2.363.923 2.718zm38.702-12.627l-.001-.001c-.776-.7-1.883-.585-2.497.14-.643.689-.511 1.699.251 2.435 4.496 4.402 7.157 9.423 7.829 16.739v.002c.116.99.77 1.724 1.72 1.724 1.019 0 1.703-.828 1.609-1.852-.81-9.029-3.825-14.423-8.911-19.187zm-24.929 23.495h0l-.002-.005-.085-.221c-.544-1.398-1.166-2.998-1.166-5.056 0-5.484 4.428-9.907 9.947-9.907 1.041 0 1.723.056 2.357.204.634.149 1.222.391 2.074.77h.001c.903.391 1.787.145 2.149-.595.47-.843.23-1.873-.75-2.43-1.541-.901-3.486-1.394-5.831-1.394-7.405 0-13.411 5.991-13.411 13.352 0 2.49.699 4.886 1.329 6.563v.001c.198.51.55.873.985 1.058.434.185.945.19 1.456-.007h0l.002-.001c.923-.376 1.27-1.341.945-2.332zm16.012 14.467l-.001.002c-.582.74-.59 1.772.076 2.387.75.699 1.976.635 2.569-.19 2.818-3.764 4.571-9.692 4.571-15.749 0-7.04-1.485-10.533-3.309-13.711h0c-.537-.927-1.616-1.236-2.444-.791-.977.475-1.126 1.675-.526 2.617 1.874 2.993 2.882 6.857 2.882 11.952 0 5.476-1.479 10.65-3.818 13.483zm-10.309-11.632v0c-.011-1.995-.366-3.592-.718-4.941l-.168-.635c-.286-1.068-.527-1.969-.527-2.809 0-1.25.441-2.281 1.207-2.999.768-.719 1.868-1.132 3.197-1.132.91 0 1.692.244 2.359.708.667.466 1.222 1.156 1.67 2.056.898 1.801 1.363 4.429 1.453 7.725v.001c.246 6.383-1.993 12.242-5.356 15.12-.725.604-.894 1.565-.397 2.317h0l.001.002c.59.844 1.793.984 2.57.259 1.875-1.685 3.497-4.346 4.644-7.493a30.374 30.374 0 001.8-10.432c-.011-4.254-.702-7.672-2.138-10.03-1.44-2.363-3.626-3.655-6.606-3.655-4.505 0-7.802 3.02-7.802 7.286 0 1.281.316 2.666.64 4.086l.027.116c.334 1.465.668 2.967.68 4.451.022 4.261-1.563 8.003-4.457 10.326l-.001.001c-.748.627-.917 1.588-.397 2.363h0l.001.002c.635.888 1.746.981 2.544.305 3.702-2.961 5.797-7.736 5.774-12.998zm-18.322-.277l.001-.001c.856-.283 1.296-1.179 1.087-2.191v-.001l-.001-.003c-.559-2.223-.827-4.111-.782-7.025v-.002c0-.929-.588-1.658-1.484-1.799h0-.004c-.524-.058-1.002.075-1.358.367-.356.292-.584.738-.619 1.293v.001c-.158 2.552.09 5.103.945 8.122.282 1.002 1.248 1.543 2.215 1.239zm19.842-6.724v.001c.962 3.177 1.118 5.974.671 8.749v.001c-.07.473.011.929.239 1.289.229.361.604.619 1.108.7a1.748 1.748 0 002.048-1.473c.541-3.135.338-6.76-.743-10.14-.162-.53-.472-.922-.863-1.143a1.64 1.64 0 00-1.328-.116c-.918.281-1.414 1.174-1.132 2.132zm-8.464 9.019h-.001c-.904-.308-1.797.217-2.146 1.165l-.001.001c-.578 1.656-1.509 2.913-2.975 3.928l-.002.002c-.436.319-.735.694-.879 1.095-.145.402-.133.825.044 1.235h0c.382.878 1.427 1.195 2.426.665.924-.465 1.909-1.395 2.742-2.476.835-1.081 1.524-2.322 1.854-3.415.305-.912-.189-1.895-1.062-2.2zm6.393 12.745h.001c1.766-1.305 3.547-3.75 4.561-6.415v-.001c.349-.947-.018-1.984-.926-2.293h0c-.514-.174-.981-.129-1.373.081-.39.208-.698.575-.906 1.034h0l-.001.002c-.87 2.107-1.962 3.59-3.454 4.829-.747.604-.939 1.61-.443 2.384h0c.523.803 1.7.984 2.541.379z" fill="#fff" stroke="#fff" stroke-width=".166"/><rect x="109.894" y="251.709" width="95.895" height="108.276" rx="10.608" fill="#4AA16F"/><ellipse rx="11.46" ry="11.453" transform="rotate(-59.343 320.167 17.237) skewX(-.063)" fill="#000"/><ellipse rx="11.461" ry="11.453" transform="rotate(-62.969 300.23 15.187) skewX(-.058)" fill="#000"/><ellipse rx="11.46" ry="11.453" transform="rotate(-59.343 325.276 -6.771) skewX(-.063)" fill="#000"/><ellipse rx="11.46" ry="11.453" transform="rotate(-59.343 336.573 -10.04) skewX(-.063)" fill="#000"/><ellipse rx="11.46" ry="11.453" transform="rotate(-59.343 344.245 -4.032) skewX(-.063)" fill="#000"/><ellipse rx="11.485" ry="11.453" transform="rotate(-59.343 329.104 22.085) skewX(-.063)" fill="#000"/><ellipse rx="19.839" ry="19.863" transform="rotate(-7.444 2400.783 -1056.372) skewX(-.018)" fill="#896B59"/><ellipse rx="5.784" ry="5.788" transform="rotate(-30.618 621.4 -103.094) skewX(-.063)" fill="#896B59"/><ellipse rx="5.784" ry="5.788" transform="rotate(-30.618 639.4 -168.642) skewX(-.063)" fill="#896B59"/><path d="M174.055 286.041c1.842 1.844 3.343 5.427 4.34 7.837.263.634-2.485 1.92-2.29 2.576l-19.01-.019-19.009-.018c.193-.643-.257-1.561 0-2.183.997-2.41.451-6.349 2.294-8.193 1.842-1.845 3.024-4.216 5.431-5.215 2.407-.998 8.679-1.52 11.284-1.52 2.606 0 7.6-.999 10.007 0 2.407.998 5.11 4.89 6.953 6.735z" fill="#000"/><path d="M139.253 297.617h35.676a12.296 12.296 0 00-11.387-7.657h-12.901c-5 0-9.502 3.027-11.388 7.657z" fill="#896B59"/><path d="M154.793 299.41s-2.42-2.423-5.401-2.423c-2.98 0-5.401 2.423-5.401 2.423s2.421 2.424 5.401 2.424c2.981 0 5.401-2.424 5.401-2.424z" fill="#fff"/><path d="M149.385 302.143a2.731 2.731 0 002.729-2.733 2.731 2.731 0 00-2.729-2.733 2.731 2.731 0 00-2.729 2.733 2.731 2.731 0 002.729 2.733z" fill="#000"/><path d="M170.647 299.41s-2.42-2.423-5.401-2.423c-2.98 0-5.401 2.423-5.401 2.423s2.421 2.424 5.401 2.424c2.981 0 5.401-2.424 5.401-2.424z" fill="#fff"/><path d="M165.246 302.143a2.73 2.73 0 002.729-2.733 2.73 2.73 0 00-2.729-2.733 2.731 2.731 0 00-2.729 2.733 2.731 2.731 0 002.729 2.733z" fill="#000"/><path d="M120.927 338.682c0-5.414 4.389-9.803 9.803-9.803h54.222c5.414 0 9.803 4.389 9.803 9.803 0 5.414-4.389 9.803-9.803 9.803H130.73c-5.414 0-9.803-4.389-9.803-9.803z" fill="#fff"/><circle cx="134.288" cy="338.682" r="3.591" fill="#000"/><circle cx="143.71" cy="338.682" r="3.591" fill="#000"/><circle cx="153.13" cy="338.682" r="3.591" fill="#000"/><circle cx="162.551" cy="338.682" r="3.591" fill="#000"/><circle cx="171.972" cy="338.682" r="3.591" fill="#000"/><circle cx="181.393" cy="338.682" r="3.591" fill="#000"/></svg>